<svg width="605" height="149" viewBox="0 0 605 149" fill="none" xmlns="http://www.w3.org/2000/svg">
<rect width="30.548" height="61.883" transform="matrix(-0.898576 -0.438818 -0.438818 0.898576 96.4805 58.882)" fill="#9A2245"/>
<rect width="30.548" height="31.0189" transform="matrix(-0.898576 -0.438818 -0.438818 0.898576 41.0613 87.5289)" fill="#9A2245"/>
<rect width="30.548" height="75.1167" transform="matrix(-0.898576 -0.438818 -0.438818 0.898576 144.163 46.0771)" fill="#9A2245"/>
<path d="M253.118 113.272V74.616C253.118 71.5867 252.691 68.9627 251.838 66.744C251.027 64.5253 249.662 62.7973 247.742 61.56C245.865 60.3227 243.283 59.704 239.998 59.704C236.969 59.704 234.345 60.2587 232.126 61.368C229.907 62.4773 228.094 63.9707 226.686 65.848C225.321 67.7253 224.339 69.8587 223.742 72.248L221.694 63.544H224.382C225.107 60.8987 226.302 58.5093 227.966 56.376C229.63 54.2 231.849 52.472 234.622 51.192C237.395 49.912 240.83 49.272 244.926 49.272C249.833 49.272 253.801 50.2107 256.83 52.088C259.859 53.9227 262.078 56.6107 263.486 60.152C264.937 63.6933 265.662 68.0453 265.662 73.208V113.272H253.118ZM211.646 113.272V50.68H224.19L223.678 65.336L224.19 66.104V113.272H211.646Z" fill="black"/>
<path d="M300.995 114.744C295.96 114.744 291.544 114.232 287.747 113.208C283.95 112.141 280.771 110.989 278.211 109.752L277.059 98.296C280.216 99.8747 283.694 101.261 287.491 102.456C291.288 103.608 295.555 104.184 300.291 104.184C304.856 104.184 308.227 103.523 310.403 102.2C312.622 100.835 313.731 98.8293 313.731 96.184V95.672C313.731 93.9653 313.283 92.5573 312.387 91.448C311.491 90.296 309.891 89.272 307.587 88.376C305.326 87.48 302.104 86.5627 297.923 85.624C292.675 84.4293 288.536 83.0213 285.507 81.4C282.478 79.7787 280.302 77.7947 278.979 75.448C277.699 73.0587 277.059 70.2 277.059 66.872V66.296C277.059 60.664 279.022 56.3973 282.947 53.496C286.872 50.5947 292.76 49.144 300.611 49.144C305.56 49.144 309.87 49.6773 313.539 50.744C317.208 51.8107 320.238 53.0267 322.627 54.392L323.779 64.824C320.92 63.288 317.656 62.008 313.987 60.984C310.36 59.9173 306.328 59.384 301.891 59.384C298.862 59.384 296.43 59.6827 294.595 60.28C292.76 60.8347 291.438 61.6453 290.627 62.712C289.816 63.736 289.411 64.9733 289.411 66.424V66.872C289.411 68.4507 289.838 69.8373 290.691 71.032C291.544 72.184 293.059 73.2293 295.235 74.168C297.454 75.064 300.526 75.9387 304.451 76.792C309.742 77.9013 313.966 79.2027 317.123 80.696C320.28 82.1893 322.563 84.1093 323.971 86.456C325.379 88.76 326.083 91.7467 326.083 95.416V96.376C326.083 102.477 323.992 107.064 319.811 110.136C315.63 113.208 309.358 114.744 300.995 114.744Z" fill="black"/>
<path d="M337.963 113.272V50.68H350.507V113.272H337.963ZM344.235 41.464C341.76 41.464 339.904 40.8453 338.667 39.608C337.472 38.328 336.875 36.5787 336.875 34.36V34.104C336.875 31.8853 337.472 30.1573 338.667 28.92C339.904 27.64 341.76 27 344.235 27C346.71 27 348.544 27.64 349.739 28.92C350.976 30.1573 351.595 31.8853 351.595 34.104V34.36C351.595 36.6213 350.976 38.3707 349.739 39.608C348.544 40.8453 346.71 41.464 344.235 41.464Z" fill="black"/>
<path d="M391.673 94.328C382.884 94.328 376.142 92.4507 371.449 88.696C366.756 84.9413 364.409 79.5867 364.409 72.632V71.608C364.409 67.2133 365.326 63.416 367.161 60.216C368.996 56.9733 371.918 54.456 375.929 52.664C379.982 50.8293 385.273 49.8053 391.801 49.592L424.313 48.504V58.296L406.905 57.528V58.232C409.38 58.872 411.428 59.8747 413.049 61.24C414.713 62.5627 415.972 64.2267 416.825 66.232C417.678 68.2373 418.105 70.6053 418.105 73.336V74.04C418.105 80.6107 415.865 85.6453 411.385 89.144C406.948 92.6 400.377 94.328 391.673 94.328ZM391.161 127.416H392.761C396.388 127.416 399.46 127.16 401.977 126.648C404.494 126.136 406.414 125.325 407.737 124.216C409.102 123.107 409.785 121.635 409.785 119.8V119.608C409.785 117.432 409.017 115.789 407.481 114.68C405.945 113.613 403.278 112.909 399.481 112.568L381.433 110.84L384.569 110.712C382.521 111.053 380.708 111.587 379.129 112.312C377.593 112.995 376.377 113.891 375.481 115C374.628 116.152 374.201 117.56 374.201 119.224V119.352C374.201 121.315 374.862 122.893 376.185 124.088C377.55 125.283 379.492 126.136 382.009 126.648C384.569 127.16 387.62 127.416 391.161 127.416ZM390.393 137.4C384.633 137.4 379.662 136.888 375.481 135.864C371.342 134.883 368.142 133.283 365.881 131.064C363.662 128.888 362.553 125.987 362.553 122.36V122.104C362.553 119.672 363.086 117.624 364.153 115.96C365.262 114.296 366.756 112.973 368.633 111.992C370.553 110.968 372.686 110.285 375.033 109.944V109.304C371.918 108.664 369.593 107.619 368.057 106.168C366.564 104.675 365.817 102.755 365.817 100.408V100.344C365.817 98.7227 366.18 97.336 366.905 96.184C367.63 94.9893 368.718 94.0507 370.169 93.368C371.662 92.6427 373.518 92.1733 375.737 91.96V90.552L388.921 93.752L384.121 93.56C381.604 93.6027 379.854 93.9227 378.873 94.52C377.934 95.1173 377.465 95.9707 377.465 97.08V97.144C377.465 98.424 378.169 99.384 379.577 100.024C381.028 100.621 383.46 101.112 386.873 101.496L402.105 103.16C408.846 103.885 413.774 105.528 416.889 108.088C420.004 110.648 421.561 114.531 421.561 119.736V120.056C421.561 124.067 420.388 127.352 418.041 129.912C415.737 132.472 412.409 134.349 408.057 135.544C403.748 136.781 398.564 137.4 392.505 137.4H390.393ZM391.481 85.112C394.766 85.112 397.497 84.6427 399.673 83.704C401.892 82.7227 403.556 81.272 404.665 79.352C405.774 77.432 406.329 75.0853 406.329 72.312V71.352C406.329 68.6213 405.774 66.3173 404.665 64.44C403.598 62.5627 401.977 61.1333 399.801 60.152C397.668 59.1707 394.958 58.68 391.673 58.68H391.353C387.812 58.68 384.932 59.2133 382.713 60.28C380.494 61.304 378.873 62.776 377.849 64.696C376.868 66.5733 376.377 68.8133 376.377 71.416V72.312C376.377 75.0853 376.932 77.432 378.041 79.352C379.15 81.272 380.814 82.7227 383.033 83.704C385.294 84.6427 388.11 85.112 391.481 85.112Z" fill="black"/>
<path d="M474.243 113.272V74.616C474.243 71.5867 473.816 68.9627 472.963 66.744C472.152 64.5253 470.787 62.7973 468.867 61.56C466.99 60.3227 464.408 59.704 461.123 59.704C458.094 59.704 455.47 60.2587 453.251 61.368C451.075 62.4773 449.304 63.9707 447.939 65.848C446.574 67.7253 445.592 69.8587 444.995 72.248L442.499 63.544H445.635C446.36 60.8987 447.555 58.5093 449.219 56.376C450.883 54.2 453.102 52.472 455.875 51.192C458.648 49.912 462.04 49.272 466.051 49.272C470.958 49.272 474.926 50.2107 477.955 52.088C480.984 53.9227 483.203 56.6107 484.611 60.152C486.062 63.6933 486.787 68.0453 486.787 73.208V113.272H474.243ZM432.771 113.272V28.536H445.251V48.504L444.931 66.552L445.315 67.448V113.272H432.771Z" fill="black"/>
<path d="M524.942 114.552C519.95 114.552 515.939 113.805 512.91 112.312C509.881 110.776 507.683 108.493 506.318 105.464C504.953 102.392 504.27 98.5733 504.27 94.008V55.736H516.686V92.536C516.686 96.376 517.561 99.192 519.31 100.984C521.059 102.776 524.003 103.672 528.142 103.672C530.617 103.672 532.985 103.416 535.246 102.904C537.507 102.392 539.598 101.667 541.518 100.728L540.43 111.352C538.382 112.376 536.014 113.165 533.326 113.72C530.638 114.275 527.843 114.552 524.942 114.552ZM494.478 61.432V51.448H540.942L539.854 61.432H494.478ZM504.398 52.536L504.334 35.32L516.878 33.848L516.366 52.536H504.398Z" fill="black"/>
<path d="M581.162 102.2L574.506 105.08L592.106 50.68H604.97L576.49 135.288H563.818L573.738 105.912L579.37 110.648H565.226L545.578 50.68H558.57L574.186 102.2H581.162Z" fill="black"/>
<path fill-rule="evenodd" clip-rule="evenodd" d="M183.088 50.68V113.272H195.632V50.68H183.088Z" fill="black"/>
<path d="M189.36 41.464C186.885 41.464 185.029 40.8453 183.792 39.608C182.597 38.328 182 36.5787 182 34.36V34.104C182 31.8853 182.597 30.1573 183.792 28.92C185.029 27.64 186.885 27 189.36 27C191.835 27 193.669 27.64 194.864 28.92C196.101 30.1573 196.72 31.8853 196.72 34.104V34.36C196.72 36.6213 196.101 38.3707 194.864 39.608C193.669 40.8453 191.835 41.464 189.36 41.464Z" fill="#9A2245"/>
</svg>
